<svg height="512pt" viewBox="-28 0 512 512.00101" width="512pt" xmlns="http://www.w3.org/2000/svg"><path d="m228.050781 10.113281c-120.363281 0-217.9375 97.570313-217.9375 217.933594 0 52.164063 18.335938 100.039063 48.902344 137.554687l-32.292969 136.285157 143.414063-63.695313c18.441406 5.070313 37.859375 7.792969 57.914062 7.792969 120.363281 0 217.933594-97.574219 217.933594-217.9375s-97.570313-217.933594-217.933594-217.933594zm0 0" fill="#ece9e8"/><path d="m361.757812 226.636719c0 73.84375-59.863281 133.707031-133.707031 133.707031-73.847656 0-133.710937-59.863281-133.710937-133.707031 0-73.847657 59.863281-133.710938 133.710937-133.710938 73.84375 0 133.707031 59.863281 133.707031 133.710938zm0 0" fill="#fff"/><path d="m389.304688 66.792969c-43.074219-43.070313-100.339844-66.792969-161.253907-66.792969-60.914062 0-118.183593 23.722656-161.253906 66.792969-43.074219 43.074219-66.796875 100.339843-66.796875 161.253906 0 50.640625 17.023438 100.152344 48.039062 140.003906l-31.152343 131.507813c-.886719 3.738281.421875 7.65625 3.378906 10.113281 1.851563 1.535156 4.144531 2.328125 6.460937 2.328125 1.386719 0 2.785157-.285156 4.101563-.871094l140.152344-62.25c18.585937 4.792969 37.765625 7.21875 57.070312 7.21875 60.914063 0 118.179688-23.722656 161.253907-66.796875 43.074218-43.070312 66.792968-100.339843 66.792968-161.253906s-23.722656-118.179687-66.792968-161.253906zm-161.253907 369.078125c-18.71875 0-37.300781-2.5-55.234375-7.429688-2.253906-.621094-4.648437-.441406-6.785156.507813l-124.765625 55.414062 27.585937-116.429687c.726563-3.058594-.015624-6.28125-2-8.71875-30.066406-36.90625-46.625-83.488282-46.625-131.167969 0-114.59375 93.226563-207.824219 207.824219-207.824219 114.59375 0 207.820313 93.230469 207.820313 207.824219 0 114.597656-93.226563 207.824219-207.820313 207.824219zm0 0"/><path d="m371.871094 226.632812c0-79.300781-64.519532-143.820312-143.820313-143.820312s-143.820312 64.519531-143.820312 143.820312c0 79.304688 64.519531 143.820313 143.820312 143.820313s143.820313-64.515625 143.820313-143.820313zm-143.820313 123.597657c-68.152343 0-123.597656-55.445313-123.597656-123.59375 0-68.152344 55.445313-123.597657 123.597656-123.597657 68.148438 0 123.59375 55.445313 123.59375 123.597657 0 68.148437-55.445312 123.59375-123.59375 123.59375zm0 0"/><path d="m385.613281 302.816406c-5.328125-1.707031-11.015625 1.222656-12.71875 6.539063-8.53125 26.582031-32.304687 44.890625-50.75 55.566406-4.832031 2.800781-6.484375 8.984375-3.6875 13.816406 1.875 3.238281 5.269531 5.050781 8.761719 5.050781 1.71875 0 3.460938-.441406 5.054688-1.363281 21.523437-12.457031 49.378906-34.179687 59.875-66.890625 1.707031-5.316406-1.21875-11.011718-6.535157-12.71875zm0 0"/><path d="m296.488281 383.914062c-5.179687-2.097656-11.074219.394532-13.171875 5.570313l-.042968.105469c-2.097657 5.171875.394531 11.070312 5.570312 13.171875 1.246094.503906 2.53125.742187 3.796875.742187 3.996094 0 7.78125-2.382812 9.375-6.3125l.042969-.105468c2.097656-5.175782-.394532-11.070313-5.570313-13.171876zm0 0"/><path d="m227.75 291.53125c-4.890625 0-8.824219 1.75-11.789062 5.238281-2.96875 3.496094-4.449219 7.6875-4.449219 12.574219 0 4.710938 1.480469 8.863281 4.449219 12.4375 2.96875 3.582031 6.898437 5.371094 11.789062 5.371094 4.882812 0 9.074219-1.789063 12.570312-5.371094 3.488282-3.574219 5.238282-7.726562 5.238282-12.4375 0-4.886719-1.75-9.078125-5.238282-12.574219-3.496093-3.488281-7.6875-5.238281-12.570312-5.238281zm0 0"/><path d="m270.175781 145.65625c-9.78125-8.378906-22.875-12.570312-39.285156-12.570312-14.667969 0-26.367187 3.316406-35.09375 9.949218-8.734375 6.636719-13.09375 13.621094-13.09375 20.953125 0 4.019531 1.34375 7.117188 4.042969 9.296875 2.695312 2.183594 5.699218 3.273438 9.003906 3.273438 2.605469 0 4.910156-.886719 6.910156-2.671875 2.003906-1.78125 3.699219-3.683594 5.09375-5.707031 1.390625-2.023438 4-3.925782 7.832032-5.710938 3.824218-1.78125 8.609374-2.671875 14.347656-2.671875 8.179687 0 14.703125 1.941406 19.574218 5.828125 4.871094 3.882812 7.308594 9.359375 7.308594 16.4375 0 4.140625-1.003906 8.15625-3.011718 12.039062-2.007813 3.882813-4.019532 6.816407-6.023438 8.800782-2.007812 1.984375-5.019531 4.703125-9.035156 8.15625l-7.59375 6.210937c-10.476563 9.324219-15.714844 22.957031-15.714844 40.90625 0 5.523438.914062 9.320313 2.746094 11.390625 1.835937 2.074219 4.933594 3.109375 9.300781 3.109375 8.726563 0 13.09375-3.144531 13.09375-9.429687 0-8.902344.695313-15.714844 2.097656-20.429688 1.390625-4.710937 5.058594-9.425781 10.996094-14.140625l5.007813-4.191406 6.859374-6.546875c1.410157-1.394531 3.570313-3.882812 6.476563-7.464844 2.90625-3.574218 5.113281-6.808594 6.609375-9.6875 1.5-2.882812 2.90625-6.417968 4.226562-10.609375 1.324219-4.1875 1.988282-8.464843 1.988282-12.832031 0-12.742188-4.886719-23.308594-14.664063-31.6875zm0 0"/></svg>